<?xml version="1.0" encoding="UTF-8"?>
<svg width="500px" height="300px" viewBox="0 0 500 300" xmlns="http://www.w3.org/2000/svg">
  <text x="3" y="21" transform="rotate(25.393955998675466 3 21)" font-size="24">😸</text><text x="3" y="50" transform="rotate(2.3236440052874983 3 50)" font-size="24">😸</text><text x="1" y="74" transform="rotate(-10.312033697969753 1 74)" font-size="24">😹</text><text x="-3" y="93" transform="rotate(2.328407393764529 -3 93)" font-size="24">😹</text><text x="2" y="117" transform="rotate(27.93142748140952 2 117)" font-size="24">😸</text><text x="2" y="143" transform="rotate(-19.639969892308148 2 143)" font-size="24">🐱</text><text x="-1" y="172" transform="rotate(18.57630430315828 -1 172)" font-size="24">😻</text><text x="2" y="188" transform="rotate(17.752095847941305 2 188)" font-size="24">😸</text><text x="0" y="213" transform="rotate(8.029486234612001 0 213)" font-size="24">😽</text><text x="0" y="239" transform="rotate(15.383126733652382 0 239)" font-size="24">😻</text><text x="-3" y="260" transform="rotate(16.72250822915518 -3 260)" font-size="24">😸</text><text x="2" y="285" transform="rotate(0.7056070737852025 2 285)" font-size="24">✂️</text><text x="17" y="20" transform="rotate(-14.382575213406096 17 20)" font-size="24">🐱</text><text x="21" y="50" transform="rotate(17.601112705039505 21 50)" font-size="24">✂️</text><text x="19" y="72" transform="rotate(13.60522427524122 19 72)" font-size="24">✂️</text><text x="19" y="100" transform="rotate(6.204378981418401 19 100)" font-size="24">✂️</text><text x="19" y="119" transform="rotate(-13.478215626208975 19 119)" font-size="24">😸</text><text x="21" y="144" transform="rotate(21.38064637235609 21 144)" font-size="24">😸</text><text x="22" y="164" transform="rotate(-17.27657619007931 22 164)" font-size="24">😸</text><text x="24" y="192" transform="rotate(17.98960731474058 24 192)" font-size="24">🐱</text><text x="21" y="214" transform="rotate(-9.411562295241357 21 214)" font-size="24">✂️</text><text x="22" y="244" transform="rotate(-24.59221242464864 22 244)" font-size="24">✂️</text><text x="23" y="268" transform="rotate(-4.06498341805975 23 268)" font-size="24">😹</text><text x="16" y="289" transform="rotate(3.3248569357552 16 289)" font-size="24">😸</text><text x="38" y="26" transform="rotate(16.506218861537505 38 26)" font-size="24">😹</text><text x="40" y="50" transform="rotate(21.661246747310713 40 50)" font-size="24">🐱</text><text x="38" y="69" transform="rotate(-3.306408659597512 38 69)" font-size="24">😻</text><text x="41" y="100" transform="rotate(-3.0954465849161927 41 100)" font-size="24">✂️</text><text x="43" y="116" transform="rotate(24.47694509438059 43 116)" font-size="24">😹</text><text x="44" y="141" transform="rotate(26.404371091705507 44 141)" font-size="24">🐱</text><text x="36" y="170" transform="rotate(-4.884104921757384 36 170)" font-size="24">😹</text><text x="40" y="196" transform="rotate(-15.31921192235874 40 196)" font-size="24">😽</text><text x="43" y="217" transform="rotate(1.395942152867594 43 217)" font-size="24">😻</text><text x="41" y="240" transform="rotate(-20.415553569923112 41 240)" font-size="24">😹</text><text x="41" y="263" transform="rotate(18.15448554971337 41 263)" font-size="24">😹</text><text x="41" y="287" transform="rotate(6.481812892570787 41 287)" font-size="24">😸</text><text x="60" y="22" transform="rotate(-26.001489567529322 60 22)" font-size="24">✂️</text><text x="64" y="50" transform="rotate(-23.829523218580707 64 50)" font-size="24">😹</text><text x="62" y="69" transform="rotate(14.401438181453713 62 69)" font-size="24">😻</text><text x="63" y="92" transform="rotate(18.36093120375262 63 92)" font-size="24">😹</text><text x="57" y="116" transform="rotate(-3.751020760433626 57 116)" font-size="24">😹</text><text x="60" y="141" transform="rotate(3.146656809602547 60 141)" font-size="24">😻</text><text x="57" y="166" transform="rotate(25.183695114526948 57 166)" font-size="24">😻</text><text x="61" y="195" transform="rotate(13.591767267550367 61 195)" font-size="24">😹</text><text x="56" y="214" transform="rotate(8.941156729129695 56 214)" font-size="24">😽</text><text x="62" y="236" transform="rotate(12.725383661063503 62 236)" font-size="24">😹</text><text x="62" y="264" transform="rotate(25.797628246113653 62 264)" font-size="24">😻</text><text x="58" y="291" transform="rotate(24.354786225166926 58 291)" font-size="24">😻</text><text x="83" y="21" transform="rotate(16.89254570145893 83 21)" font-size="24">✂️</text><text x="84" y="47" transform="rotate(29.857822587488826 84 47)" font-size="24">✂️</text><text x="83" y="75" transform="rotate(1.3551845248260044 83 75)" font-size="24">😹</text><text x="83" y="95" transform="rotate(29.58715681429031 83 95)" font-size="24">😻</text><text x="76" y="121" transform="rotate(22.58554241571754 76 121)" font-size="24">🐱</text><text x="84" y="142" transform="rotate(29.689779099866406 84 142)" font-size="24">😹</text><text x="79" y="170" transform="rotate(-27.84181427579355 79 170)" font-size="24">😽</text><text x="84" y="195" transform="rotate(-13.876403981895638 84 195)" font-size="24">🐱</text><text x="81" y="216" transform="rotate(-9.550180353898043 81 216)" font-size="24">😻</text><text x="84" y="236" transform="rotate(5.817796119075311 84 236)" font-size="24">😹</text><text x="76" y="264" transform="rotate(0.04407240924248512 76 264)" font-size="24">😻</text><text x="80" y="285" transform="rotate(19.25295789997493 80 285)" font-size="24">✂️</text><text x="98" y="21" transform="rotate(26.624919202474516 98 21)" font-size="24">😻</text><text x="104" y="52" transform="rotate(-28.49662114060034 104 52)" font-size="24">😸</text><text x="101" y="69" transform="rotate(-2.312919032592788 101 69)" font-size="24">😹</text><text x="98" y="99" transform="rotate(-8.868451553760792 98 99)" font-size="24">😻</text><text x="100" y="116" transform="rotate(-7.407682559561376 100 116)" font-size="24">😻</text><text x="103" y="141" transform="rotate(-7.296219467071651 103 141)" font-size="24">😹</text><text x="103" y="172" transform="rotate(12.248207175371405 103 172)" font-size="24">✂️</text><text x="103" y="190" transform="rotate(25.811866735107216 103 190)" font-size="24">✂️</text><text x="98" y="212" transform="rotate(26.698529250000114 98 212)" font-size="24">🐱</text><text x="97" y="239" transform="rotate(-0.9481455634175013 97 239)" font-size="24">😽</text><text x="100" y="263" transform="rotate(-5.197640689899675 100 263)" font-size="24">😻</text><text x="101" y="284" transform="rotate(0.9440290549251742 101 284)" font-size="24">✂️</text><text x="117" y="24" transform="rotate(15.581708845448041 117 24)" font-size="24">😸</text><text x="120" y="50" transform="rotate(-26.1112265007976 120 50)" font-size="24">😻</text><text x="120" y="69" transform="rotate(-23.952514770476753 120 69)" font-size="24">😽</text><text x="117" y="100" transform="rotate(-12.180280649518242 117 100)" font-size="24">😽</text><text x="120" y="123" transform="rotate(-27.145607501692567 120 123)" font-size="24">😻</text><text x="118" y="143" transform="rotate(14.787822128486646 118 143)" font-size="24">✂️</text><text x="119" y="169" transform="rotate(0.08421815831044199 119 169)" font-size="24">😸</text><text x="118" y="193" transform="rotate(10.955779795915944 118 193)" font-size="24">😻</text><text x="117" y="217" transform="rotate(8.20250787462939 117 217)" font-size="24">😽</text><text x="117" y="239" transform="rotate(28.876154541614746 117 239)" font-size="24">😻</text><text x="116" y="264" transform="rotate(-6.625431906463618 116 264)" font-size="24">😻</text><text x="117" y="289" transform="rotate(-22.294680066163618 117 289)" font-size="24">😸</text><text x="137" y="26" transform="rotate(5.183290012001201 137 26)" font-size="24">😸</text><text x="137" y="51" transform="rotate(29.12259138172118 137 51)" font-size="24">😽</text><text x="144" y="76" transform="rotate(13.765368669498677 144 76)" font-size="24">✂️</text><text x="137" y="94" transform="rotate(9.428121757481286 137 94)" font-size="24">😹</text><text x="144" y="123" transform="rotate(21.313492099451203 144 123)" font-size="24">🐱</text><text x="140" y="142" transform="rotate(-3.156275512038082 140 142)" font-size="24">😻</text><text x="144" y="165" transform="rotate(1.857870259485182 144 165)" font-size="24">🐱</text><text x="142" y="194" transform="rotate(-1.785602354979165 142 194)" font-size="24">😹</text><text x="141" y="217" transform="rotate(-27.66419914141012 141 217)" font-size="24">😸</text><text x="141" y="236" transform="rotate(22.82386430406575 141 236)" font-size="24">✂️</text><text x="142" y="263" transform="rotate(-0.1334866216057229 142 263)" font-size="24">😻</text><text x="136" y="288" transform="rotate(6.765322735398669 136 288)" font-size="24">😻</text><text x="160" y="28" transform="rotate(-7.615483731988686 160 28)" font-size="24">😽</text><text x="158" y="44" transform="rotate(27.415999863123105 158 44)" font-size="24">😹</text><text x="157" y="71" transform="rotate(7.597058667399089 157 71)" font-size="24">😹</text><text x="160" y="96" transform="rotate(28.91159594564389 160 96)" font-size="24">🐱</text><text x="162" y="116" transform="rotate(19.880601073167313 162 116)" font-size="24">😹</text><text x="158" y="147" transform="rotate(1.489255599258236 158 147)" font-size="24">😹</text><text x="156" y="169" transform="rotate(-15.589993361667599 156 169)" font-size="24">😽</text><text x="157" y="188" transform="rotate(-1.4769246294202816 157 188)" font-size="24">🐱</text><text x="164" y="220" transform="rotate(10.660883310771027 164 220)" font-size="24">😹</text><text x="156" y="238" transform="rotate(2.376560835684181 156 238)" font-size="24">😹</text><text x="163" y="265" transform="rotate(29.52711977292323 163 265)" font-size="24">🐱</text><text x="157" y="290" transform="rotate(-17.49876653909669 157 290)" font-size="24">😸</text><text x="182" y="23" transform="rotate(10.916560972405073 182 23)" font-size="24">🐱</text><text x="176" y="52" transform="rotate(14.546102739831468 176 52)" font-size="24">😻</text><text x="183" y="73" transform="rotate(-2.198995668343045 183 73)" font-size="24">😻</text><text x="176" y="95" transform="rotate(8.7132006639956 176 95)" font-size="24">😹</text><text x="178" y="117" transform="rotate(27.68642779964388 178 117)" font-size="24">😸</text><text x="182" y="141" transform="rotate(-5.826175602006668 182 141)" font-size="24">😸</text><text x="177" y="169" transform="rotate(-21.2961833939234 177 169)" font-size="24">😸</text><text x="176" y="191" transform="rotate(-16.491440739374355 176 191)" font-size="24">😻</text><text x="178" y="220" transform="rotate(-18.32690653325239 178 220)" font-size="24">😽</text><text x="178" y="240" transform="rotate(5.976327779856817 178 240)" font-size="24">🐱</text><text x="179" y="266" transform="rotate(-14.443401601948779 179 266)" font-size="24">✂️</text><text x="176" y="286" transform="rotate(-5.553654359742481 176 286)" font-size="24">✂️</text><text x="198" y="28" transform="rotate(-20.639828858392434 198 28)" font-size="24">😽</text><text x="198" y="52" transform="rotate(22.397199042929458 198 52)" font-size="24">✂️</text><text x="197" y="74" transform="rotate(-3.66414197404519 197 74)" font-size="24">✂️</text><text x="203" y="97" transform="rotate(18.859413756280333 203 97)" font-size="24">🐱</text><text x="198" y="120" transform="rotate(-19.061694265617103 198 120)" font-size="24">😽</text><text x="204" y="144" transform="rotate(19.543407195978823 204 144)" font-size="24">😽</text><text x="204" y="170" transform="rotate(4.556363635444889 204 170)" font-size="24">😻</text><text x="196" y="192" transform="rotate(22.5491443838647 196 192)" font-size="24">😽</text><text x="198" y="212" transform="rotate(-15.565432158256678 198 212)" font-size="24">✂️</text><text x="196" y="238" transform="rotate(-21.350647984605594 196 238)" font-size="24">🐱</text><text x="197" y="260" transform="rotate(24.497336499899035 197 260)" font-size="24">😽</text><text x="201" y="288" transform="rotate(-10.783940208549726 201 288)" font-size="24">✂️</text><text x="216" y="21" transform="rotate(-18.554487541419917 216 21)" font-size="24">😹</text><text x="219" y="49" transform="rotate(-28.493408992718166 219 49)" font-size="24">✂️</text><text x="223" y="70" transform="rotate(18.788194368952972 223 70)" font-size="24">✂️</text><text x="217" y="94" transform="rotate(26.152041287178115 217 94)" font-size="24">😻</text><text x="223" y="118" transform="rotate(-4.442572169729161 223 118)" font-size="24">😸</text><text x="221" y="147" transform="rotate(22.38635275114644 221 147)" font-size="24">😽</text><text x="224" y="168" transform="rotate(29.173646440031952 224 168)" font-size="24">😽</text><text x="221" y="195" transform="rotate(-5.636999019640005 221 195)" font-size="24">😽</text><text x="218" y="216" transform="rotate(-6.44497518088907 218 216)" font-size="24">😸</text><text x="219" y="236" transform="rotate(7.015668877699255 219 236)" font-size="24">😹</text><text x="224" y="260" transform="rotate(23.22937586532911 224 260)" font-size="24">😹</text><text x="216" y="290" transform="rotate(12.296999333537364 216 290)" font-size="24">😸</text><text x="240" y="26" transform="rotate(-8.105087635621338 240 26)" font-size="24">😹</text><text x="238" y="46" transform="rotate(15.670681807367671 238 46)" font-size="24">😸</text><text x="240" y="72" transform="rotate(-20.37019282352201 240 72)" font-size="24">✂️</text><text x="236" y="92" transform="rotate(-22.106717958729156 236 92)" font-size="24">😻</text><text x="236" y="122" transform="rotate(-16.68747101431766 236 122)" font-size="24">😽</text><text x="239" y="143" transform="rotate(27.30472294544755 239 143)" font-size="24">✂️</text><text x="241" y="164" transform="rotate(-4.2356560177167815 241 164)" font-size="24">🐱</text><text x="241" y="190" transform="rotate(-4.88331914093526 241 190)" font-size="24">😽</text><text x="244" y="218" transform="rotate(18.44630096398052 244 218)" font-size="24">🐱</text><text x="244" y="244" transform="rotate(18.663573941918997 244 244)" font-size="24">🐱</text><text x="236" y="262" transform="rotate(4.9245899875419425 236 262)" font-size="24">✂️</text><text x="244" y="292" transform="rotate(-6.198289712251732 244 292)" font-size="24">😽</text><text x="260" y="24" transform="rotate(9.987011286958158 260 24)" font-size="24">😻</text><text x="262" y="48" transform="rotate(10.413167019087325 262 48)" font-size="24">✂️</text><text x="260" y="69" transform="rotate(-13.59748198689352 260 69)" font-size="24">😽</text><text x="257" y="95" transform="rotate(14.00981631983548 257 95)" font-size="24">✂️</text><text x="262" y="122" transform="rotate(-0.6429242315762345 262 122)" font-size="24">😻</text><text x="262" y="144" transform="rotate(-0.47724797080137904 262 144)" font-size="24">😽</text><text x="263" y="169" transform="rotate(1.3398910007856308 263 169)" font-size="24">😹</text><text x="261" y="192" transform="rotate(7.672021028904176 261 192)" font-size="24">😽</text><text x="260" y="217" transform="rotate(-3.991563362503001 260 217)" font-size="24">😽</text><text x="260" y="244" transform="rotate(17.82397370613019 260 244)" font-size="24">✂️</text><text x="256" y="268" transform="rotate(27.58795055324633 256 268)" font-size="24">😽</text><text x="256" y="288" transform="rotate(25.601004605783032 256 288)" font-size="24">😸</text><text x="283" y="21" transform="rotate(27.847248950237976 283 21)" font-size="24">🐱</text><text x="284" y="51" transform="rotate(-4.353246612840522 284 51)" font-size="24">✂️</text><text x="277" y="73" transform="rotate(1.1034136325380643 277 73)" font-size="24">😻</text><text x="276" y="92" transform="rotate(28.391569098650685 276 92)" font-size="24">😽</text><text x="279" y="117" transform="rotate(10.457594666602567 279 117)" font-size="24">😻</text><text x="277" y="143" transform="rotate(-26.95581168395148 277 143)" font-size="24">😹</text><text x="277" y="167" transform="rotate(22.176714521555184 277 167)" font-size="24">✂️</text><text x="278" y="195" transform="rotate(26.020735918142087 278 195)" font-size="24">😻</text><text x="282" y="217" transform="rotate(-14.295419122905813 282 217)" font-size="24">✂️</text><text x="280" y="236" transform="rotate(-5.117741540446929 280 236)" font-size="24">😹</text><text x="276" y="267" transform="rotate(20.454930832064008 276 267)" font-size="24">😹</text><text x="276" y="288" transform="rotate(-2.740454513605936 276 288)" font-size="24">✂️</text><text x="302" y="28" transform="rotate(14.672116046352663 302 28)" font-size="24">😻</text><text x="302" y="49" transform="rotate(15.769811437282257 302 49)" font-size="24">😽</text><text x="297" y="71" transform="rotate(16.74700895449383 297 71)" font-size="24">😸</text><text x="302" y="96" transform="rotate(13.732717305011079 302 96)" font-size="24">😹</text><text x="301" y="123" transform="rotate(3.2789891062005267 301 123)" font-size="24">😽</text><text x="297" y="144" transform="rotate(-10.575826796902675 297 144)" font-size="24">😹</text><text x="296" y="164" transform="rotate(-6.610878304734246 296 164)" font-size="24">😸</text><text x="303" y="194" transform="rotate(19.75878841741853 303 194)" font-size="24">😹</text><text x="304" y="219" transform="rotate(-6.362248672014871 304 219)" font-size="24">😸</text><text x="296" y="243" transform="rotate(3.5403427223896884 296 243)" font-size="24">✂️</text><text x="301" y="268" transform="rotate(7.223672102251896 301 268)" font-size="24">🐱</text><text x="298" y="289" transform="rotate(-27.533145606818355 298 289)" font-size="24">😸</text><text x="319" y="21" transform="rotate(-15.523783562243231 319 21)" font-size="24">😹</text><text x="320" y="50" transform="rotate(-0.6301965483167535 320 50)" font-size="24">🐱</text><text x="320" y="73" transform="rotate(-3.4033145430030416 320 73)" font-size="24">✂️</text><text x="324" y="96" transform="rotate(2.674867626318978 324 96)" font-size="24">😸</text><text x="318" y="121" transform="rotate(-17.697760439970896 318 121)" font-size="24">🐱</text><text x="320" y="142" transform="rotate(22.475701379620112 320 142)" font-size="24">😽</text><text x="319" y="168" transform="rotate(-20.54582725696205 319 168)" font-size="24">😽</text><text x="322" y="196" transform="rotate(-8.654399484459127 322 196)" font-size="24">😻</text><text x="316" y="213" transform="rotate(-6.269509025116786 316 213)" font-size="24">😹</text><text x="321" y="244" transform="rotate(24.68078803620859 321 244)" font-size="24">😻</text><text x="317" y="264" transform="rotate(3.610434120547275 317 264)" font-size="24">😽</text><text x="323" y="287" transform="rotate(-11.175061357596164 323 287)" font-size="24">🐱</text><text x="343" y="23" transform="rotate(-23.31921664304194 343 23)" font-size="24">😹</text><text x="337" y="52" transform="rotate(-10.626319893493676 337 52)" font-size="24">😹</text><text x="338" y="70" transform="rotate(-26.512222410894932 338 70)" font-size="24">🐱</text><text x="343" y="95" transform="rotate(24.57642276956546 343 95)" font-size="24">😽</text><text x="339" y="124" transform="rotate(18.639636678752744 339 124)" font-size="24">🐱</text><text x="342" y="145" transform="rotate(-19.877898130702672 342 145)" font-size="24">😹</text><text x="339" y="169" transform="rotate(1.5784605293195568 339 169)" font-size="24">😽</text><text x="344" y="196" transform="rotate(-0.32350124692747073 344 196)" font-size="24">😹</text><text x="343" y="212" transform="rotate(-1.4059514309870451 343 212)" font-size="24">😻</text><text x="336" y="242" transform="rotate(-19.505767915976257 336 242)" font-size="24">😸</text><text x="341" y="260" transform="rotate(-22.40936658490562 341 260)" font-size="24">😻</text><text x="344" y="291" transform="rotate(-16.260115141697753 344 291)" font-size="24">😽</text><text x="364" y="23" transform="rotate(-13.31824699017088 364 23)" font-size="24">✂️</text><text x="357" y="44" transform="rotate(-20.139600518322297 357 44)" font-size="24">😸</text><text x="361" y="69" transform="rotate(-8.809933632246608 361 69)" font-size="24">✂️</text><text x="357" y="95" transform="rotate(23.684555481367944 357 95)" font-size="24">✂️</text><text x="359" y="117" transform="rotate(7.370687838695112 359 117)" font-size="24">✂️</text><text x="356" y="140" transform="rotate(20.10557854750091 356 140)" font-size="24">🐱</text><text x="356" y="171" transform="rotate(-9.613246279591575 356 171)" font-size="24">✂️</text><text x="364" y="190" transform="rotate(-4.937271642529314 364 190)" font-size="24">✂️</text><text x="362" y="219" transform="rotate(18.45305054612558 362 219)" font-size="24">🐱</text><text x="363" y="241" transform="rotate(-16.092283972422397 363 241)" font-size="24">✂️</text><text x="361" y="264" transform="rotate(17.27670893985755 361 264)" font-size="24">🐱</text><text x="363" y="284" transform="rotate(29.185467779896157 363 284)" font-size="24">😻</text><text x="384" y="20" transform="rotate(29.789518843501156 384 20)" font-size="24">😹</text><text x="378" y="45" transform="rotate(-22.324124030263267 378 45)" font-size="24">😻</text><text x="381" y="76" transform="rotate(-19.070404558429622 381 76)" font-size="24">😹</text><text x="381" y="96" transform="rotate(-7.418596040305875 381 96)" font-size="24">😽</text><text x="380" y="120" transform="rotate(-4.6920072350332624 380 120)" font-size="24">😻</text><text x="379" y="147" transform="rotate(19.21281137772997 379 147)" font-size="24">🐱</text><text x="377" y="165" transform="rotate(6.864027071740267 377 165)" font-size="24">😻</text><text x="384" y="189" transform="rotate(29.340007836823474 384 189)" font-size="24">😻</text><text x="379" y="219" transform="rotate(17.821944743622012 379 219)" font-size="24">😻</text><text x="382" y="237" transform="rotate(-21.85974627702179 382 237)" font-size="24">😹</text><text x="376" y="260" transform="rotate(13.34218997908799 376 260)" font-size="24">😻</text><text x="378" y="288" transform="rotate(-25.195822649740776 378 288)" font-size="24">✂️</text><text x="404" y="25" transform="rotate(24.99808872472142 404 25)" font-size="24">😸</text><text x="401" y="50" transform="rotate(-7.063270234930123 401 50)" font-size="24">😸</text><text x="400" y="71" transform="rotate(-5.178233645649836 400 71)" font-size="24">🐱</text><text x="402" y="95" transform="rotate(22.00910151448428 402 95)" font-size="24">😽</text><text x="399" y="124" transform="rotate(27.123313431363478 399 124)" font-size="24">😻</text><text x="403" y="146" transform="rotate(-4.125590501976102 403 146)" font-size="24">😹</text><text x="403" y="166" transform="rotate(-14.927728773579565 403 166)" font-size="24">✂️</text><text x="400" y="188" transform="rotate(19.246928904138393 400 188)" font-size="24">😹</text><text x="403" y="217" transform="rotate(-27.424792735670216 403 217)" font-size="24">😹</text><text x="398" y="238" transform="rotate(-2.352423864913842 398 238)" font-size="24">😹</text><text x="403" y="265" transform="rotate(26.71937233208247 403 265)" font-size="24">✂️</text><text x="401" y="288" transform="rotate(-4.242737645296092 401 288)" font-size="24">🐱</text><text x="422" y="25" transform="rotate(-26.54455464919271 422 25)" font-size="24">✂️</text><text x="418" y="50" transform="rotate(15.91157590292788 418 50)" font-size="24">🐱</text><text x="420" y="69" transform="rotate(-24.338152579098093 420 69)" font-size="24">😹</text><text x="417" y="96" transform="rotate(-2.156331999344033 417 96)" font-size="24">😻</text><text x="424" y="119" transform="rotate(-8.007943511411039 424 119)" font-size="24">😸</text><text x="424" y="143" transform="rotate(21.080355248946447 424 143)" font-size="24">😹</text><text x="416" y="171" transform="rotate(26.945984004606757 416 171)" font-size="24">😸</text><text x="424" y="191" transform="rotate(-16.987518467918953 424 191)" font-size="24">😻</text><text x="417" y="219" transform="rotate(21.128058144597993 417 219)" font-size="24">🐱</text><text x="418" y="240" transform="rotate(-13.47671204440384 418 240)" font-size="24">🐱</text><text x="417" y="265" transform="rotate(19.96029098728002 417 265)" font-size="24">😸</text><text x="416" y="287" transform="rotate(-11.169118747232424 416 287)" font-size="24">😽</text><text x="439" y="27" transform="rotate(16.70945361482486 439 27)" font-size="24">😻</text><text x="439" y="49" transform="rotate(19.166078556200368 439 49)" font-size="24">😻</text><text x="441" y="75" transform="rotate(-3.6586256758976745 441 75)" font-size="24">🐱</text><text x="437" y="96" transform="rotate(8.303885688424742 437 96)" font-size="24">😸</text><text x="444" y="119" transform="rotate(12.049479407388198 444 119)" font-size="24">😹</text><text x="438" y="147" transform="rotate(23.603437286082794 438 147)" font-size="24">😸</text><text x="439" y="164" transform="rotate(-3.1678482246233983 439 164)" font-size="24">😽</text><text x="444" y="193" transform="rotate(0.9572461020031575 444 193)" font-size="24">😽</text><text x="442" y="216" transform="rotate(29.47677752002331 442 216)" font-size="24">✂️</text><text x="442" y="242" transform="rotate(-29.059592929801962 442 242)" font-size="24">🐱</text><text x="443" y="267" transform="rotate(-6.075027001989813 443 267)" font-size="24">😻</text><text x="442" y="287" transform="rotate(-8.125031548889545 442 287)" font-size="24">😽</text><text x="458" y="23" transform="rotate(19.91432197179283 458 23)" font-size="24">🐱</text><text x="456" y="44" transform="rotate(-14.102149173545255 456 44)" font-size="24">🐱</text><text x="458" y="74" transform="rotate(-2.9732947970568375 458 74)" font-size="24">😹</text><text x="461" y="98" transform="rotate(-22.997384072058438 461 98)" font-size="24">✂️</text><text x="458" y="118" transform="rotate(-23.540165294925025 458 118)" font-size="24">✂️</text><text x="460" y="148" transform="rotate(-21.035346325017564 460 148)" font-size="24">😽</text><text x="457" y="172" transform="rotate(-21.43228040251208 457 172)" font-size="24">😸</text><text x="456" y="189" transform="rotate(23.15081721607536 456 189)" font-size="24">🐱</text><text x="459" y="217" transform="rotate(-7.265405511143012 459 217)" font-size="24">😹</text><text x="456" y="236" transform="rotate(11.465942111085788 456 236)" font-size="24">😻</text><text x="464" y="266" transform="rotate(-24.43573791050656 464 266)" font-size="24">😻</text><text x="464" y="290" transform="rotate(24.672148124675495 464 290)" font-size="24">😹</text><text x="478" y="24" transform="rotate(18.761212923820977 478 24)" font-size="24">😽</text><text x="476" y="47" transform="rotate(-11.781525338590225 476 47)" font-size="24">😸</text><text x="477" y="73" transform="rotate(-18.431860994157653 477 73)" font-size="24">😸</text><text x="482" y="98" transform="rotate(-22.446358091272867 482 98)" font-size="24">😹</text><text x="476" y="124" transform="rotate(20.864188284111172 476 124)" font-size="24">😽</text><text x="476" y="144" transform="rotate(18.699370069133465 476 144)" font-size="24">😽</text><text x="478" y="165" transform="rotate(4.344374763780735 478 165)" font-size="24">😸</text><text x="483" y="193" transform="rotate(-25.220876552809422 483 193)" font-size="24">✂️</text><text x="479" y="219" transform="rotate(12.046153715737958 479 219)" font-size="24">😻</text><text x="484" y="236" transform="rotate(18.685453735400174 484 236)" font-size="24">😸</text><text x="482" y="266" transform="rotate(-9.202397112806572 482 266)" font-size="24">😽</text><text x="480" y="284" transform="rotate(18.831205899626426 480 284)" font-size="24">✂️</text>
</svg>
