<?xml version="1.0" encoding="UTF-8"?>
<svg width="500px" height="300px" viewBox="0 0 500 300" xmlns="http://www.w3.org/2000/svg">
  
<defs>
  <linearGradient id="bg-gradient" gradientUnits="userSpaceOnUse" x1="0" y1="0" x2="500" y2="0" gradientTransform="rotate(45)">
    <stop offset="0%" stop-color="oklch(52.5% 0.3 20)" />
    <stop offset="100%" stop-color="oklch(42% 0.25 330)" />
  </linearGradient>
</defs>
<rect x="0" y="0" width="100%" height="100%" fill="url(#bg-gradient)" />

  <text x="2" y="28" transform="rotate(11.996805841293316 2 28)" font-size="28">🐱</text><text x="2" y="61" transform="rotate(-17.533349903564197 2 61)" font-size="28">🐱</text><text x="2" y="93" transform="rotate(1.0211771081655776 2 93)" font-size="28">😸</text><text x="1" y="124" transform="rotate(12.421548599730855 1 124)" font-size="28">✂️</text><text x="-1" y="154" transform="rotate(7.764827650148817 -1 154)" font-size="28">😽</text><text x="-1" y="187" transform="rotate(-18.069403437144782 -1 187)" font-size="28">✂️</text><text x="1" y="221" transform="rotate(-19.46319385520188 1 221)" font-size="28">✂️</text><text x="-1" y="250" transform="rotate(17.92247100385311 -1 250)" font-size="28">✂️</text><text x="2" y="286" transform="rotate(5.220778546776074 2 286)" font-size="28">😽</text><text x="30" y="27" transform="rotate(9.79155383010854 30 27)" font-size="28">😹</text><text x="31" y="59" transform="rotate(-15.059930229457255 31 59)" font-size="28">😸</text><text x="34" y="94" transform="rotate(13.03939727478788 34 94)" font-size="28">✂️</text><text x="34" y="124" transform="rotate(3.905432770599422 34 124)" font-size="28">😻</text><text x="31" y="155" transform="rotate(-13.856289810694147 31 155)" font-size="28">😹</text><text x="32" y="188" transform="rotate(5.617018965936591 32 188)" font-size="28">✂️</text><text x="32" y="221" transform="rotate(-3.962164385650585 32 221)" font-size="28">✂️</text><text x="32" y="254" transform="rotate(-18.62631729584837 32 254)" font-size="28">😹</text><text x="34" y="282" transform="rotate(-13.017684616052678 34 282)" font-size="28">😸</text><text x="63" y="30" transform="rotate(-5.05478020698629 63 30)" font-size="28">😸</text><text x="62" y="60" transform="rotate(5.910814274138183 62 60)" font-size="28">😹</text><text x="63" y="90" transform="rotate(-6.41232862564452 63 90)" font-size="28">😻</text><text x="64" y="126" transform="rotate(17.1794837406118 64 126)" font-size="28">😸</text><text x="65" y="156" transform="rotate(1.6676821191131594 65 156)" font-size="28">😽</text><text x="63" y="188" transform="rotate(-11.596100965499456 63 188)" font-size="28">😸</text><text x="63" y="219" transform="rotate(-2.582701780944504 63 219)" font-size="28">😻</text><text x="64" y="251" transform="rotate(-17.146805355899076 64 251)" font-size="28">✂️</text><text x="65" y="284" transform="rotate(7.925688453943742 65 284)" font-size="28">😹</text><text x="96" y="29" transform="rotate(12.53522311743555 96 29)" font-size="28">😽</text><text x="97" y="62" transform="rotate(-1.6559052992138703 97 62)" font-size="28">😻</text><text x="96" y="91" transform="rotate(-5.754471667344898 96 91)" font-size="28">😽</text><text x="98" y="126" transform="rotate(10.198053270427138 98 126)" font-size="28">✂️</text><text x="97" y="155" transform="rotate(10.822958931793664 97 155)" font-size="28">✂️</text><text x="97" y="186" transform="rotate(8.659558638782844 97 186)" font-size="28">😻</text><text x="95" y="218" transform="rotate(-5.132209109612669 95 218)" font-size="28">😽</text><text x="94" y="251" transform="rotate(-12.806628690456531 94 251)" font-size="28">😸</text><text x="98" y="282" transform="rotate(16.934922072387067 98 282)" font-size="28">✂️</text><text x="128" y="27" transform="rotate(16.51755824011716 128 27)" font-size="28">😽</text><text x="126" y="58" transform="rotate(0.02374319779265832 126 58)" font-size="28">✂️</text><text x="130" y="90" transform="rotate(7.48893755933053 130 90)" font-size="28">✂️</text><text x="130" y="124" transform="rotate(4.894795251235465 130 124)" font-size="28">😻</text><text x="130" y="156" transform="rotate(9.223585975180498 130 156)" font-size="28">✂️</text><text x="128" y="187" transform="rotate(-9.073366936153553 128 187)" font-size="28">😻</text><text x="129" y="218" transform="rotate(-9.028753723132166 129 218)" font-size="28">😻</text><text x="129" y="254" transform="rotate(-0.8554748014505584 129 254)" font-size="28">😽</text><text x="128" y="282" transform="rotate(-5.649821868514122 128 282)" font-size="28">✂️</text><text x="161" y="30" transform="rotate(-11.817781958050467 161 30)" font-size="28">😻</text><text x="160" y="60" transform="rotate(-6.705817466318793 160 60)" font-size="28">😹</text><text x="159" y="94" transform="rotate(-9.575329607517391 159 94)" font-size="28">🐱</text><text x="161" y="123" transform="rotate(16.842720614645607 161 123)" font-size="28">🐱</text><text x="158" y="156" transform="rotate(-6.202024216038232 158 156)" font-size="28">😹</text><text x="159" y="186" transform="rotate(-8.332092172981454 159 186)" font-size="28">😽</text><text x="159" y="218" transform="rotate(-9.41242149747695 159 218)" font-size="28">😻</text><text x="160" y="254" transform="rotate(-5.961118607575591 160 254)" font-size="28">😻</text><text x="160" y="286" transform="rotate(-15.206668243312379 160 286)" font-size="28">✂️</text><text x="191" y="28" transform="rotate(-6.288650514728808 191 28)" font-size="28">😸</text><text x="193" y="59" transform="rotate(4.442368274540204 193 59)" font-size="28">😹</text><text x="192" y="90" transform="rotate(16.444475003198185 192 90)" font-size="28">😸</text><text x="190" y="122" transform="rotate(-13.84183646342304 190 122)" font-size="28">🐱</text><text x="193" y="158" transform="rotate(-3.888175171686182 193 158)" font-size="28">😹</text><text x="192" y="190" transform="rotate(-14.933762307055517 192 190)" font-size="28">✂️</text><text x="190" y="218" transform="rotate(-12.236621025411644 190 218)" font-size="28">😸</text><text x="192" y="253" transform="rotate(-9.637479290697005 192 253)" font-size="28">✂️</text><text x="192" y="283" transform="rotate(1.5694437254780595 192 283)" font-size="28">🐱</text><text x="222" y="26" transform="rotate(18.65765521094525 222 26)" font-size="28">✂️</text><text x="226" y="61" transform="rotate(8.610129313490763 226 61)" font-size="28">😽</text><text x="226" y="90" transform="rotate(1.1430255380966727 226 90)" font-size="28">😹</text><text x="225" y="123" transform="rotate(11.530104105968832 225 123)" font-size="28">😹</text><text x="224" y="156" transform="rotate(1.4269271660132254 224 156)" font-size="28">😽</text><text x="223" y="189" transform="rotate(-19.201791856949594 223 189)" font-size="28">😻</text><text x="226" y="220" transform="rotate(13.830803010406981 226 220)" font-size="28">😹</text><text x="224" y="254" transform="rotate(-8.97816175562031 224 254)" font-size="28">😹</text><text x="223" y="283" transform="rotate(-18.73072873949617 223 283)" font-size="28">✂️</text><text x="254" y="27" transform="rotate(19.37475122077126 254 27)" font-size="28">✂️</text><text x="258" y="62" transform="rotate(-18.536223374365623 258 62)" font-size="28">✂️</text><text x="258" y="90" transform="rotate(15.232089801535558 258 90)" font-size="28">😽</text><text x="258" y="125" transform="rotate(19.921746696019838 258 125)" font-size="28">✂️</text><text x="258" y="157" transform="rotate(5.853289557382947 258 157)" font-size="28">✂️</text><text x="257" y="187" transform="rotate(12.834182834512873 257 187)" font-size="28">😸</text><text x="255" y="222" transform="rotate(-0.8048664050051073 255 222)" font-size="28">😸</text><text x="257" y="250" transform="rotate(-3.3301089933794117 257 250)" font-size="28">✂️</text><text x="254" y="283" transform="rotate(-2.1597938642564642 254 283)" font-size="28">😻</text><text x="286" y="29" transform="rotate(-12.010988781931111 286 29)" font-size="28">✂️</text><text x="288" y="58" transform="rotate(15.494169170343135 288 58)" font-size="28">😹</text><text x="289" y="93" transform="rotate(8.426795396429405 289 93)" font-size="28">😹</text><text x="286" y="126" transform="rotate(7.26189794163616 286 126)" font-size="28">🐱</text><text x="290" y="156" transform="rotate(3.5123033395956185 290 156)" font-size="28">✂️</text><text x="288" y="188" transform="rotate(16.345774097730235 288 188)" font-size="28">😽</text><text x="287" y="221" transform="rotate(-10.105262662326005 287 221)" font-size="28">✂️</text><text x="286" y="254" transform="rotate(-2.735968439233666 286 254)" font-size="28">😻</text><text x="286" y="283" transform="rotate(13.679134185794155 286 283)" font-size="28">😻</text><text x="322" y="29" transform="rotate(3.3823590827520817 322 29)" font-size="28">✂️</text><text x="322" y="60" transform="rotate(13.2817915317626 322 60)" font-size="28">🐱</text><text x="319" y="92" transform="rotate(2.9396777610221747 319 92)" font-size="28">😽</text><text x="318" y="125" transform="rotate(-13.979587301324985 318 125)" font-size="28">🐱</text><text x="322" y="154" transform="rotate(-15.620676598307476 322 154)" font-size="28">✂️</text><text x="318" y="189" transform="rotate(8.487491553451278 318 189)" font-size="28">😽</text><text x="322" y="220" transform="rotate(-1.9632268821157552 322 220)" font-size="28">😽</text><text x="321" y="252" transform="rotate(13.404763254232932 321 252)" font-size="28">😹</text><text x="322" y="282" transform="rotate(-14.251359090753137 322 282)" font-size="28">😹</text><text x="353" y="29" transform="rotate(0.6009333911706705 353 29)" font-size="28">✂️</text><text x="354" y="58" transform="rotate(4.894856870202524 354 58)" font-size="28">😻</text><text x="352" y="94" transform="rotate(-16.14884061312415 352 94)" font-size="28">😽</text><text x="351" y="122" transform="rotate(19.502583566072246 351 122)" font-size="28">✂️</text><text x="351" y="155" transform="rotate(-17.08099380047937 351 155)" font-size="28">😽</text><text x="354" y="186" transform="rotate(8.163297346422645 354 186)" font-size="28">✂️</text><text x="351" y="220" transform="rotate(14.196839716588102 351 220)" font-size="28">😽</text><text x="354" y="251" transform="rotate(-6.928895340453632 354 251)" font-size="28">🐱</text><text x="354" y="284" transform="rotate(6.958005345781075 354 284)" font-size="28">😸</text><text x="386" y="27" transform="rotate(-14.524826871876812 386 27)" font-size="28">🐱</text><text x="384" y="62" transform="rotate(16.01468304994355 384 62)" font-size="28">😸</text><text x="386" y="90" transform="rotate(-5.900345087444535 386 90)" font-size="28">🐱</text><text x="386" y="124" transform="rotate(-2.8712724920941888 386 124)" font-size="28">😽</text><text x="385" y="157" transform="rotate(-8.83327092388884 385 157)" font-size="28">🐱</text><text x="386" y="189" transform="rotate(13.837485001399969 386 189)" font-size="28">😸</text><text x="382" y="220" transform="rotate(-5.49094645727501 382 220)" font-size="28">😸</text><text x="385" y="254" transform="rotate(-1.478587171692375 385 254)" font-size="28">😸</text><text x="385" y="283" transform="rotate(0.064732256571844 385 283)" font-size="28">😻</text><text x="416" y="27" transform="rotate(-18.093612104255165 416 27)" font-size="28">😽</text><text x="414" y="62" transform="rotate(15.2312319680481 414 62)" font-size="28">😸</text><text x="415" y="92" transform="rotate(-13.896540693993584 415 92)" font-size="28">✂️</text><text x="416" y="125" transform="rotate(15.04512914305166 416 125)" font-size="28">🐱</text><text x="415" y="155" transform="rotate(12.013077416874644 415 155)" font-size="28">😽</text><text x="417" y="190" transform="rotate(-17.32638601951253 417 190)" font-size="28">😹</text><text x="416" y="220" transform="rotate(11.028210211062014 416 220)" font-size="28">😻</text><text x="415" y="254" transform="rotate(2.5132873683516266 415 254)" font-size="28">✂️</text><text x="417" y="284" transform="rotate(2.274596154455928 417 284)" font-size="28">🐱</text><text x="450" y="30" transform="rotate(14.5541061106766 450 30)" font-size="28">✂️</text><text x="449" y="61" transform="rotate(12.476503064494885 449 61)" font-size="28">✂️</text><text x="447" y="93" transform="rotate(-3.6668728394164845 447 93)" font-size="28">✂️</text><text x="447" y="126" transform="rotate(13.36800650833544 447 126)" font-size="28">✂️</text><text x="448" y="155" transform="rotate(0.18569726215461202 448 155)" font-size="28">✂️</text><text x="446" y="189" transform="rotate(8.252105879589795 446 189)" font-size="28">😻</text><text x="449" y="222" transform="rotate(-4.858185712498408 449 222)" font-size="28">😹</text><text x="447" y="252" transform="rotate(-19.09467581747098 447 252)" font-size="28">✂️</text><text x="450" y="285" transform="rotate(-8.725158320374371 450 285)" font-size="28">😸</text><text x="482" y="27" transform="rotate(3.1186239783579524 482 27)" font-size="28">✂️</text><text x="480" y="60" transform="rotate(14.814111652886922 480 60)" font-size="28">😻</text><text x="478" y="90" transform="rotate(18.037464706073408 478 90)" font-size="28">😸</text><text x="479" y="125" transform="rotate(12.236857531971204 479 125)" font-size="28">🐱</text><text x="481" y="157" transform="rotate(16.589659192894068 481 157)" font-size="28">😸</text><text x="478" y="186" transform="rotate(11.674042123858253 478 186)" font-size="28">😽</text><text x="479" y="219" transform="rotate(3.621334097395028 479 219)" font-size="28">✂️</text><text x="482" y="253" transform="rotate(-18.558293183811188 482 253)" font-size="28">😽</text><text x="481" y="283" transform="rotate(8.980276938669675 481 283)" font-size="28">😽</text>
</svg>
